<?xml version="1.0" encoding="UTF-8"?>
<!-- Generator: Blender, SVG Export for Grease Pencil - v1.0 -->
<!DOCTYPE svg PUBLIC "-//W3C//DTD SVG 1.1//EN" "http://www.w3.org/Graphics/SVG/1.1/DTD/svg11.dtd">
<svg version="1.0" x="0px" y="0px" xmlns="http://www.w3.org/2000/svg" width="345px" height="300px" viewBox="0 0 345 300">
	<g id="blender_frame_1">
		<g id="blender_object_GPencil.007">
			<!--Layer: GP_Layer-->
			<g id="GP_Layer">
				<polygon fill="#FEFEFE" stroke="none" fill-opacity="1" points="149.917297,259.570618 149.406067,258.389771 149.073486,257.584778 148.639832,256.556091 148.206909,255.551941 147.744812,254.471191 147.253052,253.355164 146.730042,252.197327 146.182922,251.002441 145.590576,249.790833 144.950256,248.559937 144.267883,247.309021 143.524475,246.039490 142.717102,244.744324 141.830200,243.408630 140.893921,242.031311 139.901245,240.605164 138.873169,239.140869 137.783997,237.610291 136.653931,236.034790 135.492493,234.427002 134.286804,232.780334 133.001160,231.084320 131.704590,229.369934 130.402344,227.636871 129.098083,225.883026 127.748840,224.128845 126.319580,222.383453 124.849854,220.652893 123.368774,218.924347 121.870850,217.201996 120.341125,215.498566 118.800537,213.809540 117.199219,212.153748 115.496765,210.621796 113.805054,209.109070 112.097412,207.605011 110.358643,206.155243 108.607178,204.744904 106.811279,203.405243 104.957947,202.106598 103.054565,200.879181 101.116760,199.679382 99.121582,198.535828 97.055603,197.538818 94.915527,196.615570 92.737732,195.744690 90.451965,194.982971 88.067566,194.288116 85.584595,193.623474 82.975647,192.956360 80.288330,192.241516 77.330688,191.274078 74.291748,190.162628 71.247925,189.067566 68.210754,187.953644 65.167969,186.817047 62.162842,185.548553 59.227478,184.085693 56.362610,182.430786 53.520203,180.680389 50.699463,178.835052 47.896729,176.870239 45.132019,174.740540 42.444153,172.458069 40.088440,170.017639 37.808838,167.557678 35.542725,165.089996 33.321045,162.606140 31.205994,160.086121 29.229004,157.528534 27.321289,154.954834 25.485107,152.367004 23.727417,149.766052 22.117310,147.149536 20.608948,144.526215 19.154480,141.900116 17.808044,139.272736 16.579468,136.648987 15.466248,134.035583 14.464050,131.434601 13.602356,128.851379 12.874634,126.286316 12.283875,123.740509 11.769714,121.206024 11.312012,118.679779 10.917175,116.163025 10.636169,113.663025 10.416199,111.171997 10.245483,108.688171 10.116516,106.210510 10.033264,103.739441 10.000000,101.275818 10.011414,98.819031 10.087952,96.372925 10.210388,93.934692 10.384338,91.505981 10.623047,89.090515 10.911560,86.686768 11.240356,84.293945 11.598511,81.910339 12.006104,79.543884 12.486511,77.208252 13.015198,74.898987 13.593384,72.621277 14.237122,70.397217 14.929321,68.224487 15.654846,66.091736 16.421204,64.014893 17.219116,61.987305 18.043213,60.004150 18.896973,58.079651 19.774780,56.209473 20.678467,54.408020 21.600403,52.671021 22.534912,50.985901 23.482849,49.371826 24.442078,47.835999 25.408081,46.368896 26.377258,44.950623 27.348450,43.584351 28.320435,42.264282 29.292358,40.995483 30.263855,39.761780 31.234741,38.565979 32.204712,37.405762 33.174072,36.275879 34.142639,35.183716 35.110901,34.127686 36.078979,33.105957 37.047607,32.125366 38.017212,31.174255 38.988220,30.253906 39.961060,29.362366 40.935974,28.493896 41.913635,27.651733 42.895752,26.841431 43.885620,26.071106 44.882629,25.328491 45.889587,24.619507 46.902710,23.928040 47.923035,23.256653 48.947693,22.596008 49.978271,21.949524 51.012878,21.312134 52.052917,20.686462 53.097473,20.070190 54.148682,19.467224 55.206055,18.875977 56.272278,18.301270 57.348145,17.743530 58.434753,17.204224 59.538391,16.692566 60.658325,16.205200 61.794495,15.741028 62.944397,15.295349 64.114075,14.875793 65.298218,14.475159 66.497498,14.093750 67.710083,13.729675 68.932678,13.378418 70.166626,13.041870 71.408630,12.716064 72.659912,12.402954 73.920349,12.102234 75.191345,11.816833 76.469727,11.542297 77.758789,11.284058 79.061157,11.046936 80.378357,10.834900 81.711243,10.651123 83.056213,10.491028 84.413513,10.356873 85.781372,10.246033 87.157898,10.155151 88.541870,10.082397 89.934326,10.030457 91.335083,10.000000 92.747925,10.002136 94.172241,10.038391 95.605530,10.103577 97.048218,10.200562 98.496460,10.317444 99.949890,10.453003 101.407288,10.603027 102.868774,10.768188 104.333801,10.946594 105.803467,11.142761 107.279602,11.363525 108.761536,11.607117 110.251648,11.883728 111.750366,12.196777 113.254639,12.534241 114.765503,12.903320 116.283142,13.305237 117.810974,13.764832 119.347046,14.276062 120.891602,14.856018 122.440613,15.487244 123.991821,16.162537 125.543823,16.870239 127.095764,17.616028 128.646790,18.389221 130.194580,19.213379 131.734436,20.110352 133.267578,21.054260 134.794861,22.034180 136.317322,23.042236 137.835999,24.070435 139.350952,25.118286 140.861511,26.188171 142.365967,27.286926 143.858582,28.439148 145.332886,29.658936 146.792236,30.923950 148.238770,32.218079 149.674927,33.537537 151.072754,34.923889 152.352844,36.465576 153.554077,38.067627 154.722046,39.697144 155.853760,41.352600 156.963562,43.022644 158.044861,44.711975 159.091797,46.421265 160.085266,48.166870 160.969299,49.963806 161.806396,51.797668 162.629150,53.646423 163.435669,55.495544 164.245544,57.371643 164.974976,59.259583 165.698608,61.179199 166.367798,63.124695 166.885925,65.072937 167.319092,67.022339 167.701782,68.969055 168.051819,70.915833 168.374451,72.860352 168.646362,74.806580 168.833313,76.746826 168.946289,78.691956 169.009827,80.634949 169.038574,82.576172 169.040955,84.517639 168.968323,86.452942 168.808105,88.392090 168.541626,90.333130 168.198547,92.280151 167.770203,94.235535 167.260681,96.190674 166.669189,98.145203 166.011169,100.090698 165.302124,102.033569 164.547974,103.971252 163.730469,105.913147 162.855713,107.839172 161.761780,109.810364 160.542786,111.758423 159.231079,113.717773 157.825256,115.703613 156.331360,117.674622 154.697266,119.623901 153.137817,121.520111 151.409790,123.337067 149.841919,124.929749 148.186462,126.477661 146.587097,127.923096 145.012695,129.322632 143.388855,130.649567 141.876282,131.884064 140.327454,133.007568 138.857300,134.056854 137.411499,134.962372 136.044556,135.787292 134.703125,136.557495 133.353027,137.249817 132.075317,137.895264 130.819946,138.505768 129.563965,139.091644 128.369751,139.614838 127.141052,140.086517 125.954224,140.500153 124.774475,140.860565 123.604980,141.186523 122.436523,141.482452 121.268677,141.756439 120.099243,142.011322 118.927795,142.249298 117.753174,142.470093 116.574768,142.672455 115.390381,142.855225 114.199219,143.012543 112.998291,143.150238 111.790100,143.253815 110.568298,143.333984 109.305115,143.366760 108.038696,143.394806 106.763367,143.385468 105.456726,143.351349 104.136841,143.305084 102.843811,143.226624 101.504089,143.125214 100.145691,142.995880 98.792847,142.849274 97.420898,142.671783 96.028992,142.464478 94.683167,142.244171 93.269470,141.997772 91.828308,141.746643 90.451965,141.424561 89.054626,141.061798 87.724243,140.638214 86.414062,140.175781 85.152832,139.662354 83.882812,139.075470 82.597168,138.475372 81.278992,137.859131 79.953796,137.241333 78.627319,136.621246 77.352722,135.940552 76.103394,135.228882 74.901978,134.462250 73.693909,133.643646 72.532227,132.759735 71.372375,131.823822 70.210938,130.849121 69.062073,129.833069 67.935608,128.773468 66.812866,127.707916 65.697693,126.614380 64.604980,125.484222 63.557678,124.270142 62.512451,123.074860 61.484741,121.858093 60.536621,120.589233 59.649719,119.254761 58.956787,117.740662 58.255920,116.130066 57.600159,114.473328 57.057861,112.699890 56.589722,110.883728 56.226440,109.067017 55.946289,107.228516 55.797302,105.312439 55.670837,103.353394 55.538025,101.371582 55.439636,99.359619 55.450317,97.295227 55.560730,95.239258 55.839233,93.175781 56.189331,91.085938 56.653015,88.986450 57.192261,86.885315 57.841675,84.793213 58.614746,82.735779 59.561890,80.755737 60.711365,78.891541 61.972290,77.072815 63.400330,75.319214 65.033875,73.674500 66.747681,72.082886 68.477539,70.545227 70.267212,69.089844 72.136230,67.731995 74.082825,66.524536 76.111511,65.469299 78.215942,64.556213 80.385193,63.808472 82.587585,63.195740 84.806824,62.735352 87.018372,62.392517 89.203979,62.185059 91.348206,62.100769 93.428467,62.166260 95.439392,62.352295 97.356750,62.685608 99.204712,63.101135 100.979736,63.602844 102.682373,64.190796 104.327942,64.823608 105.876953,65.538574 107.370911,66.302185 108.770081,67.119324 110.096802,67.969788 111.364075,68.852966 112.499207,69.786194 113.594482,70.732971 114.586243,71.682678 115.489441,72.642151 116.380310,73.607666 117.196716,74.560364 117.941345,75.506958 118.653076,76.429688 119.315186,77.365295 119.890198,78.251343 120.395203,79.122192 120.853577,79.944580 121.278748,80.741882 121.674316,81.503662 122.028076,82.235657 122.330383,82.947449 122.640930,83.605408 122.894348,84.258240 123.162109,84.851318 123.370483,85.384827 123.551392,85.912170 123.784668,86.401917 123.933411,86.816895 124.078491,87.232117 124.234314,87.571655 124.407593,87.896484 124.529724,88.162842 124.667236,88.410522 124.776611,88.593628 124.873352,88.725342 124.993652,88.822388 125.112366,88.879028 125.216187,88.888367 125.294739,88.870483 125.385986,88.814697 125.471924,88.715393 125.555115,88.570557 125.592041,88.373108 125.667542,88.148010 125.728455,87.898743 125.743286,87.612061 125.793579,87.292236 125.828613,86.952759 125.812866,86.558044 125.781189,86.128479 125.761353,85.700500 125.695740,85.223816 125.626953,84.715027 125.570190,84.216248 125.489380,83.650635 125.358276,83.093445 125.208801,82.503174 125.061279,81.914185 124.900757,81.279785 124.699646,80.630859 124.486755,79.958801 124.234985,79.273254 123.967896,78.568054 123.674255,77.848206 123.358582,77.112000 123.001953,76.381775 122.642273,75.623108 122.232361,74.857178 121.806274,74.075928 121.366882,73.284851 120.882507,72.488159 120.363342,71.685242 119.831299,70.881531 119.270142,70.071899 118.645264,69.246094 118.026306,68.434692 117.367126,67.634155 116.679565,66.823608 115.952698,66.018372 115.201843,65.222534 114.388123,64.443176 113.532227,63.672119 112.637756,62.917236 111.689758,62.188965 110.686035,61.472229 109.635925,60.792236 108.543518,60.128174 107.414246,59.494507 106.257019,58.878174 105.065674,58.288635 103.846924,57.731567 102.594299,57.203491 101.313721,56.702087 99.999268,56.241150 98.653015,55.822449 97.269775,55.453735 95.855103,55.131592 94.412354,54.856079 92.937622,54.640869 91.436646,54.485535 89.914856,54.386414 88.380676,54.328186 86.832520,54.323425 85.272400,54.370667 83.699768,54.472290 82.108582,54.643555 80.496887,54.885498 78.864502,55.196960 77.216125,55.576782 75.562134,56.034607 73.919250,56.571899 72.310791,57.196533 70.759277,57.887573 69.253418,58.618164 67.818359,59.396545 66.466797,60.221252 65.208923,61.092163 64.023132,62.000488 62.901123,62.947876 61.808228,63.919067 60.740601,64.912781 59.687134,65.920776 58.666199,66.961548 57.712280,68.067749 56.805786,69.218750 55.926514,70.396484 55.072571,71.599365 54.239990,72.823792 53.437195,74.078918 52.673889,75.375610 51.963379,76.729248 51.318909,78.154541 50.735229,79.645203 50.198975,81.185364 49.699768,82.759888 49.270508,84.381958 48.874756,86.018127 48.497192,87.662964 48.138489,89.314697 47.799744,90.972839 47.499878,92.641113 47.242004,94.316833 47.044189,96.000610 46.901733,97.685303 46.813171,99.367920 46.756470,101.048462 46.739563,102.727539 46.779846,104.405579 46.871033,106.083740 47.007019,107.762512 47.174316,109.441528 47.378113,111.121094 47.640076,112.799561 47.968872,114.474426 48.363647,116.143616 48.818970,117.803864 49.340393,119.450256 49.929504,121.076385 50.572693,122.682007 51.265686,124.264435 51.999939,125.825623 52.796875,127.352844 53.682251,128.827057 54.634216,130.256653 55.637207,131.647278 56.683167,133.000580 57.768921,134.310608 58.906494,135.549866 60.078613,136.737091 61.290833,137.863373 62.522705,138.956970 63.791443,139.991608 65.117126,140.930756 66.474426,141.815094 67.850220,142.663727 69.236755,143.489197 70.639526,144.284821 72.044128,145.074890 73.453796,145.850494 74.879456,146.599731 76.308289,147.335999 77.738220,148.067627 79.180725,148.775604 80.616455,149.496521 82.067993,150.183685 83.522644,150.856628 84.979675,151.532471 86.438843,152.167023 87.939087,152.788696 89.475952,153.319794 91.077026,153.762970 92.710022,154.191406 94.373962,154.560333 96.012512,154.951691 97.644226,155.324341 99.239746,155.705475 100.908020,156.050964 102.553223,156.368469 104.298706,156.647369 106.047180,156.953430 107.782410,157.235840 109.350098,157.726654 110.848633,158.276398 112.269043,158.901520 113.618774,159.594086 114.936707,160.344574 116.193176,161.182861 117.369385,162.063354 118.576233,163.039276 119.694397,164.103516 120.852173,165.226013 122.007385,166.408112 123.217285,167.655670 124.540588,168.977051 125.929260,170.380554 127.390625,171.843231 128.896362,173.330933 130.401550,174.843201 131.974365,176.391479 133.667175,178.012878 135.454956,179.772644 137.260376,181.535797 139.077942,183.325012 140.889465,185.110870 142.698669,186.912201 144.477844,188.721588 146.248657,190.531128 147.976318,192.348511 149.668762,194.164154 151.243774,195.964294 152.711975,197.737518 154.092041,199.485535 155.409851,201.210632 156.743530,202.932281 158.084656,204.624176 159.428406,206.287659 160.698669,207.910736 161.849243,209.479218 162.883972,211.007965 163.548462,212.380737 164.203552,213.748230 164.749023,215.085449 165.111450,216.328735 165.313843,217.495117 165.391785,218.592896 165.475159,219.684387 165.545288,220.768738 165.613159,221.849060 165.673645,222.922516 165.727478,223.987518 165.769897,225.038361 165.802795,226.074768 165.828857,227.099457 165.851318,228.115631 165.870483,229.123932 165.886169,230.119263 165.898560,231.092529 165.910156,232.032776 165.925598,232.951233 165.945251,233.852692 165.969666,234.739319 165.995850,235.619202 166.023804,236.490295 166.053040,237.352112 166.082703,238.202942 166.113159,239.042603 166.144897,239.867859 166.177979,240.691711 166.211914,241.517944 166.246277,242.351990 166.280579,243.195801 166.314575,244.051086 166.348450,244.924011 166.381531,245.833679 166.413452,246.813660 166.445129,247.916809 166.479675,249.106750 166.514832,250.305542 166.550354,251.516418 166.586548,252.737000 166.622803,253.961365 166.662292,255.238708 166.706360,256.570312 166.753601,257.931702 166.805237,259.328552 166.860901,260.756165 166.919678,262.209961 166.980408,263.679993 167.043274,265.181335 167.106567,266.702820 167.169861,268.237366 167.231079,269.785217 167.290955,271.342773 167.342346,272.920471 167.381592,274.519043 167.417603,276.118286 167.446167,277.719299 167.474915,279.320496 167.495667,280.920776 167.528381,282.522278 167.516296,284.116516 167.481323,285.642029 167.432190,287.255554 167.388123,288.562927 167.295105,290.562439" />
				<polygon fill="#FEFEFE" stroke="none" fill-opacity="1" points="195.139587,259.570618 195.650818,258.389771 195.983398,257.584778 196.416992,256.556091 196.849976,255.551941 197.311951,254.471191 197.803711,253.355164 198.326843,252.197327 198.873840,251.002441 199.466187,249.790833 200.106567,248.559937 200.788879,247.309021 201.532288,246.039490 202.339661,244.744324 203.226624,243.408630 204.162964,242.031311 205.155518,240.605164 206.183594,239.140869 207.272888,237.610291 208.402954,236.034790 209.564392,234.427002 210.770020,232.780334 212.055725,231.084320 213.352295,229.369934 214.654419,227.636871 215.958801,225.883026 217.307922,224.128845 218.737305,222.383453 220.206909,220.652893 221.688049,218.924347 223.186035,217.201996 224.715759,215.498566 226.256226,213.809540 227.857666,212.153748 229.559998,210.621796 231.251770,209.109070 232.959412,207.605011 234.698242,206.155243 236.449646,204.744904 238.245483,203.405243 240.098816,202.106598 242.002197,200.879181 243.940063,199.679382 245.935242,198.535828 248.001282,197.538818 250.141296,196.615570 252.319092,195.744690 254.604797,194.982971 256.989319,194.288116 259.472229,193.623474 262.081238,192.956360 264.768494,192.241516 267.726135,191.274078 270.765015,190.162628 273.808899,189.067566 276.846130,187.953644 279.888855,186.817047 282.893982,185.548553 285.829407,184.085693 288.694153,182.430786 291.536621,180.680389 294.357422,178.835052 297.160156,176.870239 299.924744,174.740540 302.612793,172.458069 304.968384,170.017639 307.247925,167.557678 309.514099,165.089996 311.735779,162.606140 313.850769,160.086121 315.827759,157.528534 317.735596,154.954834 319.571716,152.367004 321.329346,149.766052 322.939453,147.149536 324.447815,144.526215 325.902344,141.900116 327.248840,139.272736 328.477417,136.648987 329.590637,134.035583 330.592834,131.434601 331.454529,128.851379 332.182129,126.286316 332.772949,123.740509 333.287048,121.206024 333.744751,118.679779 334.139648,116.163025 334.420593,113.663025 334.640564,111.171997 334.811279,108.688171 334.940308,106.210510 335.023621,103.739441 335.056763,101.275818 335.045349,98.819031 334.968872,96.372925 334.846436,93.934692 334.672485,91.505981 334.433716,89.090515 334.145203,86.686768 333.816406,84.293945 333.458313,81.910339 333.050720,79.543884 332.570312,77.208252 332.041687,74.898987 331.463501,72.621277 330.819702,70.397217 330.127563,68.224487 329.401917,66.091736 328.635620,64.014893 327.837769,61.987305 327.013672,60.004150 326.159851,58.079651 325.281982,56.209473 324.378418,54.408020 323.456360,52.671021 322.521912,50.985901 321.574036,49.371826 320.614685,47.835999 319.648743,46.368896 318.679626,44.950623 317.708374,43.584351 316.736389,42.264282 315.764526,40.995483 314.792969,39.761780 313.822144,38.565979 312.852051,37.405762 311.882690,36.275879 310.914124,35.183716 309.945923,34.127686 308.977905,33.105957 308.009216,32.125366 307.039673,31.174255 306.068542,30.253906 305.095825,29.362366 304.120850,28.493896 303.143188,27.651733 302.161133,26.841431 301.171143,26.071106 300.174194,25.328491 299.167236,24.619507 298.154053,23.928040 297.133850,23.256653 296.109131,22.596008 295.078491,21.949524 294.043945,21.312134 293.003906,20.686462 291.959412,20.070190 290.908081,19.467224 289.850830,18.875977 288.784485,18.301270 287.708740,17.743530 286.622192,17.204224 285.518372,16.692566 284.398438,16.205200 283.262268,15.741028 282.112488,15.295349 280.942810,14.875793 279.758606,14.475159 278.559326,14.093750 277.346802,13.729675 276.124084,13.378418 274.890259,13.041870 273.648254,12.716064 272.396851,12.402954 271.136536,12.102234 269.865417,11.816833 268.587158,11.542297 267.298035,11.284058 265.995667,11.046936 264.678406,10.834900 263.345581,10.651123 262.000671,10.491028 260.643372,10.356873 259.275452,10.246033 257.898987,10.155151 256.514954,10.082397 255.122559,10.030457 253.721741,10.000000 252.308960,10.002136 250.884521,10.038391 249.451233,10.103577 248.008667,10.200562 246.560425,10.317444 245.106873,10.453003 243.649536,10.603027 242.188049,10.768188 240.723022,10.946594 239.253418,11.142761 237.777161,11.363525 236.295288,11.607117 234.805237,11.883728 233.306519,12.196777 231.802124,12.534241 230.291321,12.903320 228.773682,13.305237 227.245911,13.764832 225.709839,14.276062 224.165161,14.856018 222.616150,15.487244 221.065063,16.162537 219.513000,16.870239 217.961060,17.616028 216.410095,18.389221 214.862183,19.213379 213.322327,20.110352 211.789307,21.054260 210.262024,22.034180 208.739502,23.042236 207.220825,24.070435 205.705933,25.118286 204.195251,26.188171 202.690857,27.286926 201.198181,28.439148 199.723877,29.658936 198.264587,30.923950 196.818115,32.218079 195.381897,33.537537 193.984009,34.923889 192.704041,36.465576 191.502686,38.067627 190.334839,39.697144 189.203125,41.352600 188.093262,43.022644 187.012024,44.711975 185.964966,46.421265 184.971558,48.166870 184.087524,49.963806 183.250488,51.797668 182.427673,53.646423 181.621155,55.495544 180.811218,57.371643 180.081787,59.259583 179.358276,61.179199 178.689026,63.124695 178.170837,65.072937 177.737793,67.022339 177.355103,68.969055 177.004944,70.915833 176.682312,72.860352 176.410522,74.806580 176.223511,76.746826 176.110474,78.691956 176.046936,80.634949 176.018188,82.576172 176.015930,84.517639 176.088562,86.452942 176.248657,88.392090 176.515198,90.333130 176.858337,92.280151 177.286682,94.235535 177.796204,96.190674 178.387695,98.145203 179.045654,100.090698 179.754700,102.033569 180.508911,103.971252 181.326355,105.913147 182.201050,107.839172 183.294983,109.810364 184.514099,111.758423 185.825806,113.717773 187.231506,115.703613 188.725525,117.674622 190.359558,119.623901 191.919067,121.520111 193.647095,123.337067 195.214844,124.929749 196.870300,126.477661 198.469788,127.923096 200.044067,129.322632 201.668030,130.649567 203.180542,131.884064 204.729370,133.007568 206.199585,134.056854 207.645264,134.962372 209.012207,135.787292 210.353699,136.557495 211.703857,137.249817 212.981567,137.895264 214.236938,138.505768 215.492798,139.091644 216.687073,139.614838 217.915771,140.086517 219.102539,140.500153 220.282410,140.860565 221.451904,141.186523 222.620300,141.482452 223.788208,141.756439 224.957581,142.011322 226.129028,142.249298 227.303650,142.470093 228.482056,142.672455 229.666443,142.855225 230.857544,143.012543 232.058594,143.150238 233.266724,143.253815 234.488586,143.333984 235.751709,143.366760 237.018066,143.394806 238.293518,143.385468 239.600159,143.351349 240.919983,143.305084 242.213013,143.226624 243.552734,143.125214 244.911194,142.995880 246.263977,142.849274 247.635925,142.671783 249.027832,142.464478 250.373657,142.244171 251.787415,141.997772 253.228516,141.746643 254.604797,141.424561 256.002258,141.061798 257.332642,140.638214 258.642883,140.175781 259.903931,139.662354 261.174011,139.075470 262.459717,138.475372 263.777893,137.859131 265.103088,137.241333 266.429565,136.621246 267.704163,135.940552 268.953369,135.228882 270.154785,134.462250 271.362915,133.643646 272.524658,132.759735 273.684448,131.823822 274.845886,130.849121 275.994751,129.833069 277.121216,128.773468 278.243896,127.707916 279.359131,126.614380 280.451782,125.484222 281.499146,124.270142 282.544373,123.074860 283.572144,121.858093 284.520203,120.589233 285.407043,119.254761 286.099976,117.740662 286.800842,116.130066 287.456726,114.473328 287.998962,112.699890 288.467163,110.883728 288.830383,109.067017 289.110474,107.228516 289.259521,105.312439 289.386047,103.353394 289.518860,101.371582 289.617188,99.359619 289.606567,97.295227 289.496155,95.239258 289.217651,93.175781 288.867493,91.085938 288.403748,88.986450 287.864502,86.885315 287.215088,84.793213 286.442078,82.735779 285.494934,80.755737 284.345459,78.891541 283.084534,77.072815 281.656555,75.319214 280.023010,73.674500 278.309143,72.082886 276.579346,70.545227 274.789673,69.089844 272.920654,67.731995 270.973938,66.524536 268.945251,65.469299 266.840942,64.556213 264.671631,63.808472 262.469177,63.195740 260.249939,62.735352 258.038391,62.392517 255.852844,62.185059 253.708618,62.100769 251.628357,62.166260 249.617432,62.352295 247.700012,62.685608 245.852173,63.101135 244.077026,63.602844 242.374512,64.190796 240.728882,64.823608 239.179871,65.538574 237.685852,66.302185 236.286743,67.119324 234.960083,67.969788 233.692749,68.852966 232.557617,69.786194 231.462341,70.732971 230.470642,71.682678 229.567444,72.642151 228.676575,73.607666 227.860107,74.560364 227.115540,75.506958 226.403748,76.429688 225.741638,77.365295 225.166687,78.251343 224.661682,79.122192 224.203247,79.944580 223.778137,80.741882 223.382446,81.503662 223.028687,82.235657 222.726379,82.947449 222.415955,83.605408 222.162415,84.258240 221.894714,84.851318 221.686340,85.384827 221.505371,85.912170 221.272217,86.401917 221.123413,86.816895 220.978394,87.232117 220.822510,87.571655 220.649292,87.896484 220.527100,88.162842 220.389648,88.410522 220.280273,88.593628 220.183472,88.725342 220.063232,88.822388 219.944458,88.879028 219.840698,88.888367 219.762146,88.870483 219.670898,88.814697 219.584961,88.715393 219.501709,88.570557 219.464783,88.373108 219.389282,88.148010 219.328369,87.898743 219.313538,87.612061 219.263245,87.292236 219.228210,86.952759 219.243958,86.558044 219.275635,86.128479 219.295410,85.700500 219.361023,85.223816 219.429810,84.715027 219.486633,84.216248 219.567444,83.650635 219.698486,83.093445 219.848022,82.503174 219.995544,81.914185 220.156006,81.279785 220.357178,80.630859 220.570068,79.958801 220.821838,79.273254 221.088989,78.568054 221.382629,77.848206 221.698242,77.112000 222.054810,76.381775 222.414551,75.623108 222.824524,74.857178 223.250488,74.075928 223.689880,73.284851 224.174438,72.488159 224.693542,71.685242 225.225464,70.881531 225.786621,70.071899 226.411560,69.246094 227.030457,68.434692 227.689758,67.634155 228.377197,66.823608 229.104126,66.018372 229.854919,65.222534 230.668640,64.443176 231.524597,63.672119 232.419067,62.917236 233.367126,62.188965 234.370789,61.472229 235.420959,60.792236 236.513367,60.128174 237.642578,59.494507 238.799805,58.878174 239.991150,58.288635 241.209961,57.731567 242.462585,57.203491 243.743164,56.702087 245.057556,56.241150 246.403870,55.822449 247.787048,55.453735 249.201660,55.131592 250.644409,54.856079 252.119141,54.640869 253.620117,54.485535 255.142029,54.386414 256.676086,54.328186 258.224365,54.323425 259.784424,54.370667 261.357117,54.472290 262.948303,54.643555 264.559937,54.885498 266.192261,55.196960 267.840759,55.576782 269.494690,56.034607 271.137573,56.571899 272.746033,57.196533 274.297546,57.887573 275.803406,58.618164 277.238525,59.396545 278.590088,60.221252 279.847961,61.092163 281.033752,62.000488 282.155701,62.947876 283.248657,63.919067 284.316223,64.912781 285.369690,65.920776 286.390625,66.961548 287.344604,68.067749 288.250977,69.218750 289.130310,70.396484 289.984253,71.599365 290.816772,72.823792 291.619568,74.078918 292.382996,75.375610 293.093445,76.729248 293.737854,78.154541 294.321655,79.645203 294.857849,81.185364 295.356995,82.759888 295.786377,84.381958 296.182068,86.018127 296.559631,87.662964 296.918335,89.314697 297.257141,90.972839 297.557007,92.641113 297.814880,94.316833 298.012634,96.000610 298.155090,97.685303 298.243652,99.367920 298.300415,101.048462 298.317200,102.727539 298.276917,104.405579 298.185791,106.083740 298.049866,107.762512 297.882446,109.441528 297.678711,111.121094 297.416687,112.799561 297.087891,114.474426 296.693237,116.143616 296.237854,117.803864 295.716431,119.450256 295.127319,121.076385 294.484070,122.682007 293.791138,124.264435 293.056824,125.825623 292.259949,127.352844 291.374512,128.827057 290.422607,130.256653 289.419556,131.647278 288.373657,133.000580 287.287842,134.310608 286.150269,135.549866 284.978210,136.737091 283.765930,137.863373 282.534180,138.956970 281.265442,139.991608 279.939636,140.930756 278.582397,141.815094 277.206665,142.663727 275.820068,143.489197 274.417297,144.284821 273.012756,145.074890 271.603027,145.850494 270.177368,146.599731 268.748535,147.335999 267.318604,148.067627 265.876160,148.775604 264.440369,149.496521 262.988831,150.183685 261.534180,150.856628 260.077209,151.532471 258.617981,152.167023 257.117737,152.788696 255.580933,153.319794 253.979736,153.762970 252.346802,154.191406 250.682800,154.560333 249.044373,154.951691 247.412537,155.324341 245.817078,155.705475 244.148865,156.050964 242.503601,156.368469 240.758179,156.647369 239.009705,156.953430 237.274414,157.235840 235.706787,157.726654 234.208191,158.276398 232.787720,158.901520 231.437988,159.594086 230.120178,160.344574 228.863647,161.182861 227.687500,162.063354 226.480652,163.039276 225.362427,164.103516 224.204712,165.226013 223.049377,166.408112 221.839478,167.655670 220.516296,168.977051 219.127502,170.380554 217.666199,171.843231 216.160522,173.330933 214.655334,174.843201 213.082520,176.391479 211.389587,178.012878 209.601807,179.772644 207.796448,181.535797 205.978821,183.325012 204.167297,185.110870 202.358215,186.912201 200.579041,188.721588 198.808228,190.531128 197.080566,192.348511 195.388000,194.164154 193.813110,195.964294 192.344910,197.737518 190.964722,199.485535 189.647034,201.210632 188.313354,202.932281 186.972229,204.624176 185.628418,206.287659 184.358215,207.910736 183.207642,209.479218 182.172791,211.007965 181.508301,212.380737 180.853210,213.748230 180.307739,215.085449 179.945312,216.328735 179.742981,217.495117 179.665100,218.592896 179.581726,219.684387 179.511475,220.768738 179.443726,221.849060 179.383118,222.922516 179.329407,223.987518 179.286987,225.038361 179.254089,226.074768 179.227905,227.099457 179.205505,228.115631 179.186401,229.123932 179.170715,230.119263 179.158203,231.092529 179.146667,232.032776 179.131287,232.951233 179.111633,233.852692 179.087158,234.739319 179.061035,235.619202 179.032959,236.490295 179.003784,237.352112 178.974060,238.202942 178.943604,239.042603 178.911865,239.867859 178.878784,240.691711 178.844971,241.517944 178.810608,242.351990 178.776306,243.195801 178.742249,244.051086 178.708435,244.924011 178.675354,245.833679 178.643372,246.813660 178.611633,247.916809 178.577209,249.106750 178.542053,250.305542 178.506531,251.516418 178.470276,252.737000 178.434082,253.961365 178.394592,255.238708 178.350525,256.570312 178.303284,257.931702 178.251648,259.328552 178.195862,260.756165 178.137146,262.209961 178.076477,263.679993 178.013550,265.181335 177.950256,266.702820 177.887024,268.237366 177.825684,269.785217 177.765869,271.342773 177.714539,272.920471 177.675171,274.519043 177.639282,276.118286 177.610596,277.719299 177.581970,279.320496 177.561157,280.920776 177.528503,282.522278 177.540588,284.116516 177.575439,285.642029 177.624695,287.255554 177.668640,288.562927 177.761780,290.562439" />
			</g>
		</g>
	</g>
	<g id="blender_frame_1">
		<g id="blender_object_GPencil.009">
			<!--Layer: Plane_013_Fills-->
			<g id="Plane_013_Fills">
				<polygon fill="#FEFEFE" stroke="none" fill-opacity="1" points="172.528442,201.509003 215.574768,158.462585 172.528442,115.416260 129.481995,158.462585" />
			</g>
			<!--Layer: Plane_013_Lines-->
			<g id="Plane_013_Lines">
				<polygon fill="#FEFEFE" stroke="none" fill-opacity="1" points="129.481995,158.462585 172.528442,201.509003" />
				<polygon fill="#FEFEFE" stroke="none" fill-opacity="1" points="172.528442,201.509003 215.574768,158.462585" />
				<polygon fill="#FEFEFE" stroke="none" fill-opacity="1" points="215.574768,158.462585 172.528442,115.416260" />
				<polygon fill="#FEFEFE" stroke="none" fill-opacity="1" points="172.528442,115.416260 129.481995,158.462585" />
			</g>
		</g>
	</g>
	
	<style>
		#GP_Layer *, #GP_Layer{
			-webkit-filter: drop-shadow( 0px 0px 20px rgba(0, 0, 0, 0.10));
			filter: drop-shadow( 0px 0px 20px rgba(0, 0, 0, 0.10));
		}
		#blender_frame_1 *, #blender_frame_1{
			<!-- -webkit-filter: drop-shadow( 0px 0px 50px rgba(1, 1, 1, 0.15));
			filter: drop-shadow( 0px 0px 50px rgba(1, 1, 1, 0.15)); -->
		}
	</style>

</svg>
