<?xml version="1.0" encoding="UTF-8"?>
<!-- Generator: Blender, SVG Export for Grease Pencil - v1.0 -->
<!DOCTYPE svg PUBLIC "-//W3C//DTD SVG 1.1//EN" "http://www.w3.org/Graphics/SVG/1.1/DTD/svg11.dtd">
<svg version="1.0" x="0px" y="0px" xmlns="http://www.w3.org/2000/svg" width="561px" height="561px" viewBox="0 0 561 561">
	<g id="blender_frame_1">
		<g id="blender_object_Background-Resizer">
			<!--Layer: bg_006_Lines-->
			<g id="bg_006_Lines" />
		</g>
	</g>
	<g id="blender_frame_1">
		<g id="blender_object_GPencil.007">
			<!--Layer: GP_Layer-->
			<g id="GP_Layer">
				<polygon fill="#FEFEFE" stroke="none" fill-opacity="1" points="248.072815,444.531433 247.336609,442.831055 246.857727,441.671875 246.233276,440.190613 245.609802,438.744690 244.944519,437.188354 244.236328,435.581299 243.483093,433.913940 242.695435,432.193420 241.842407,430.448608 240.920288,428.676147 239.937683,426.874939 238.867188,425.046692 237.704590,423.181702 236.427490,421.258240 235.079224,419.274841 233.649719,417.221191 232.169373,415.112732 230.600769,412.908752 228.973572,410.639832 227.301208,408.324768 225.564941,405.953491 223.713623,403.511292 221.846436,401.042603 219.971375,398.546936 218.093201,396.021423 216.150269,393.495422 214.092163,390.982117 211.975830,388.490051 209.843018,386.000916 207.686035,383.520813 205.483154,381.067810 203.264771,378.635681 200.958862,376.251282 198.507385,374.045349 196.071289,371.867004 193.612183,369.701111 191.108521,367.613525 188.586304,365.582581 186.000244,363.653534 183.331482,361.783386 180.590515,360.015991 177.800171,358.288300 174.927124,356.641541 171.952026,355.205841 168.870361,353.876343 165.734375,352.622284 162.442932,351.525391 159.009399,350.524811 155.433960,349.567780 151.677002,348.607147 147.807251,347.577698 143.548279,346.184601 139.172241,344.584167 134.789124,343.007294 130.415527,341.403198 126.033936,339.766479 121.706604,337.939911 117.479614,335.833344 113.354309,333.450287 109.261169,330.929657 105.199280,328.272369 101.163391,325.443146 97.182312,322.376404 93.311707,319.089569 89.919495,315.575348 86.636902,312.033051 83.373596,308.479584 80.174438,304.902771 77.128784,301.274017 74.281982,297.591064 71.534851,293.884949 68.890686,290.158539 66.359680,286.413116 64.041077,282.645355 61.869080,278.867767 59.774597,275.086182 57.835754,271.302795 56.066589,267.524536 54.463562,263.761261 53.020325,260.015900 51.779541,256.296051 50.731689,252.602356 49.880981,248.936401 49.140564,245.286682 48.481445,241.648926 47.912964,238.024780 47.508362,234.424866 47.191528,230.837769 46.945740,227.261047 46.760010,223.693237 46.640076,220.134827 46.592163,216.587280 46.608643,213.049500 46.718872,209.527100 46.895203,206.016052 47.145630,202.518738 47.489380,199.040466 47.904846,195.579102 48.378296,192.133484 48.894043,188.700989 49.481018,185.293335 50.172729,181.930054 50.934082,178.604736 51.766663,175.324768 52.693726,172.122131 53.690430,168.993408 54.735168,165.922241 55.838745,162.931580 56.987793,160.011841 58.174438,157.156189 59.403748,154.384827 60.667908,151.691833 61.969177,149.097656 63.296814,146.596436 64.642456,144.169922 66.007446,141.845581 67.388733,139.633972 68.779785,137.521362 70.175415,135.479065 71.573914,133.511658 72.973572,131.610779 74.373169,129.783630 75.772156,128.007202 77.170166,126.285217 78.567017,124.614563 79.962891,122.987488 81.357605,121.414795 82.751770,119.894043 84.145874,118.422791 85.540710,117.010681 86.936829,115.641052 88.335144,114.315857 89.736084,113.032043 91.139893,111.781372 92.547791,110.568665 93.961975,109.401917 95.387451,108.292603 96.823181,107.223206 98.273193,106.202271 99.731995,105.206665 101.201294,104.239807 102.676819,103.288452 104.160828,102.357544 105.650635,101.439697 107.148315,100.538757 108.652466,99.651306 110.166260,98.783081 111.688782,97.931641 113.224182,97.104065 114.773438,96.300964 116.338135,95.524292 117.927429,94.787537 119.540100,94.085754 121.176208,93.417297 122.831970,92.775574 124.516296,92.171448 126.221558,91.594482 127.948486,91.045288 129.694641,90.520996 131.455200,90.015076 133.231995,89.530518 135.020447,89.061340 136.822388,88.610413 138.637329,88.177490 140.467590,87.766479 142.308411,87.371155 144.164734,86.999329 146.040161,86.657898 147.936951,86.352478 149.856262,86.087830 151.792969,85.857300 153.747437,85.664124 155.717224,85.504517 157.699341,85.373718 159.692383,85.268921 161.697388,85.194092 163.714539,85.150208 165.748962,85.153259 167.800049,85.205505 169.864075,85.299438 171.941406,85.439087 174.026917,85.607422 176.119873,85.802551 178.218506,86.018555 180.322998,86.256409 182.432678,86.513428 184.549011,86.795776 186.674622,87.113770 188.808594,87.464600 190.954407,87.862854 193.112549,88.313599 195.278625,88.799500 197.454346,89.330994 199.639648,89.909729 201.839722,90.571655 204.051697,91.307800 206.275879,92.142944 208.506470,93.051880 210.740112,94.024292 212.975098,95.043335 215.209839,96.117310 217.443420,97.230652 219.672180,98.417419 221.889587,99.709106 224.097168,101.068298 226.296570,102.479492 228.488892,103.931030 230.675781,105.411743 232.857300,106.920532 235.032471,108.461182 237.198975,110.043396 239.348267,111.702637 241.471375,113.459106 243.572754,115.280701 245.655701,117.144226 247.723877,119.044250 249.736694,121.040588 251.579895,123.260559 253.309753,125.567627 254.991638,127.914062 256.621338,130.297974 258.219482,132.702759 259.776428,135.135437 261.284119,137.596802 262.714722,140.110474 263.987671,142.698120 265.193115,145.338867 266.377930,148.001038 267.539246,150.663757 268.705566,153.365356 269.755798,156.083923 270.797974,158.848206 271.761475,161.649719 272.507690,164.455139 273.131470,167.262329 273.682373,170.065613 274.186523,172.868896 274.651184,175.669067 275.042542,178.471619 275.311951,181.265564 275.474548,184.066528 275.566040,186.864502 275.607483,189.659790 275.610779,192.455444 275.506226,195.242371 275.275574,198.034790 274.891846,200.829834 274.397766,203.633545 273.780945,206.449280 273.047241,209.264648 272.195496,212.079224 271.248047,214.880737 270.226929,217.678467 269.140869,220.468628 267.963806,223.265015 266.704163,226.038513 265.128906,228.876953 263.373535,231.682129 261.484558,234.503662 259.460266,237.363220 257.309082,240.201538 254.955994,243.008484 252.710266,245.739014 250.221985,248.355469 247.964294,250.648956 245.580444,252.877838 243.277283,254.959259 241.010315,256.974609 238.671875,258.885376 236.493774,260.663116 234.263489,262.280914 232.146423,263.791870 230.064575,265.095825 228.096252,266.283722 226.164551,267.392853 224.220337,268.389740 222.380432,269.319153 220.572693,270.198303 218.764099,271.041992 217.044434,271.795349 215.275085,272.474609 213.566101,273.070282 211.867126,273.589264 210.183167,274.058624 208.500610,274.484741 206.818909,274.879272 205.134888,275.246338 203.448059,275.588989 201.756592,275.906921 200.059692,276.198334 198.354187,276.461548 196.638916,276.688110 194.909485,276.886353 193.169739,277.035583 191.410400,277.151001 189.591370,277.198120 187.767761,277.238556 185.931213,277.225067 184.049683,277.175964 182.149109,277.109375 180.287170,276.996368 178.357910,276.850342 176.401794,276.664124 174.453674,276.453003 172.478149,276.197388 170.473816,275.898865 168.535828,275.581573 166.500000,275.226837 164.424805,274.865234 162.442871,274.401367 160.430603,273.879028 158.514893,273.269104 156.628296,272.603180 154.812134,271.863831 152.983276,271.018707 151.131958,270.154572 149.233826,269.267151 147.325439,268.377533 145.415405,267.484650 143.579956,266.504395 141.780945,265.479614 140.050903,264.375671 138.311279,263.196930 136.638489,261.924042 134.968323,260.576355 133.295837,259.172760 131.641418,257.709656 130.019287,256.183868 128.402649,254.649445 126.796753,253.074738 125.223206,251.447327 123.715149,249.699036 122.209961,247.977844 120.730103,246.225769 119.364807,244.398560 118.087769,242.476929 117.089905,240.296631 116.080688,237.977417 115.136353,235.591614 114.355408,233.037842 113.681274,230.422668 113.158203,227.806580 112.754761,225.159058 112.540161,222.399963 112.358093,219.578857 112.166870,216.725220 112.025146,213.828003 112.040588,210.855286 112.199585,207.894653 112.600586,204.923218 113.104736,201.913818 113.772522,198.890625 114.549011,195.864990 115.484131,192.852356 116.597351,189.889648 117.961304,187.038452 119.616455,184.354004 121.432190,181.734985 123.488525,179.209839 125.840881,176.841431 128.308716,174.549438 130.799683,172.335266 133.376831,170.239441 136.068176,168.284180 138.871399,166.545532 141.792664,165.025879 144.822998,163.711060 147.946777,162.634338 151.118225,161.752014 154.313965,161.089050 157.498535,160.595337 160.645813,160.296631 163.733459,160.175232 166.729065,160.269592 169.624817,160.537415 172.385742,161.017456 175.046753,161.615784 177.602783,162.338318 180.054688,163.184875 182.424255,164.096130 184.654846,165.125732 186.806152,166.225281 188.820923,167.401917 190.731384,168.626648 192.556213,169.898499 194.190857,171.242310 195.768066,172.605652 197.196167,173.973206 198.496704,175.354797 199.779602,176.745178 200.955261,178.117004 202.027466,179.480164 203.052429,180.808899 204.005798,182.156128 204.833923,183.432129 205.561096,184.686035 206.221130,185.870361 206.833374,187.018433 207.403015,188.115356 207.912415,189.169495 208.347717,190.194458 208.794922,191.141907 209.159851,192.082031 209.545349,192.936035 209.845520,193.704224 210.105957,194.463684 210.441833,195.168884 210.656128,195.766479 210.864990,196.364380 211.089417,196.853333 211.338867,197.321045 211.514832,197.704590 211.712769,198.061279 211.870239,198.324890 212.009644,198.514587 212.182861,198.654297 212.353821,198.735901 212.503296,198.749390 212.616394,198.723633 212.747803,198.643250 212.871460,198.500305 212.991333,198.291687 213.044434,198.007324 213.153259,197.683228 213.240906,197.324402 213.262268,196.911438 213.334778,196.450989 213.385193,195.962097 213.362488,195.393677 213.316833,194.775146 213.288330,194.158875 213.193909,193.472351 213.094788,192.739746 213.013062,192.021484 212.896667,191.207092 212.707886,190.404724 212.492615,189.554688 212.280273,188.706543 212.049072,187.792969 211.759460,186.858582 211.452881,185.890808 211.090332,184.903687 210.705688,183.888062 210.282898,182.851562 209.828369,181.791443 209.314819,180.739929 208.796875,179.647400 208.206604,178.544495 207.593079,177.419495 206.960327,176.280334 206.262756,175.133057 205.515198,173.976929 204.749023,172.819519 203.941040,171.653687 203.041138,170.464539 202.149841,169.296082 201.200623,168.143372 200.210632,166.976135 199.163940,165.816589 198.082703,164.670654 196.910828,163.548401 195.678406,162.438049 194.390381,161.350891 193.025208,160.302246 191.579895,159.270142 190.067749,158.290894 188.494690,157.334717 186.868530,156.422302 185.202148,155.534729 183.486572,154.685791 181.731567,153.883667 179.927795,153.123230 178.083740,152.401184 176.190918,151.737488 174.252258,151.134521 172.260498,150.603577 170.223450,150.139709 168.145874,149.742920 166.022217,149.432983 163.860840,149.209351 161.669434,149.066650 159.460205,148.982788 157.230835,148.975891 154.984375,149.044006 152.719727,149.190247 150.428467,149.436890 148.107544,149.785339 145.756958,150.233826 143.383362,150.780640 141.001587,151.440002 138.635803,152.213745 136.319580,153.113159 134.085449,154.108215 131.917053,155.160339 129.850403,156.281128 127.904297,157.468689 126.092957,158.722900 124.385315,160.030823 122.769653,161.395081 121.195923,162.793579 119.658569,164.224548 118.141602,165.676025 116.671387,167.174744 115.297852,168.767700 113.992493,170.425171 112.726257,172.121094 111.496643,173.853210 110.297729,175.616394 109.141724,177.423767 108.042419,179.291016 107.019470,181.240234 106.091431,183.292603 105.250793,185.439270 104.478638,187.657043 103.759766,189.924316 103.141602,192.260132 102.571777,194.616272 102.028076,196.984741 101.511475,199.363281 101.023743,201.750977 100.591980,204.153320 100.220642,206.566345 99.935791,208.990967 99.730652,211.416931 99.603027,213.839844 99.521423,216.259827 99.497131,218.677734 99.555115,221.094055 99.686462,223.510681 99.882202,225.928101 100.123169,228.345886 100.416626,230.764465 100.793884,233.181458 101.267273,235.593262 101.835754,237.996887 102.491394,240.387634 103.242310,242.758423 104.090515,245.100098 105.016785,247.412170 106.014709,249.690826 107.072021,251.938904 108.219604,254.138123 109.494507,256.261017 110.865295,258.319611 112.309692,260.322174 113.815857,262.270905 115.379395,264.157288 117.017456,265.941833 118.705200,267.651489 120.450867,269.273254 122.224792,270.848022 124.051758,272.337891 125.960815,273.690308 127.915222,274.963776 129.896301,276.185822 131.893005,277.374481 133.912964,278.520142 135.935547,279.657867 137.965515,280.774719 140.018494,281.853638 142.075989,282.913818 144.135132,283.967377 146.212219,284.986877 148.279724,286.024994 150.369995,287.014557 152.464722,287.983612 154.562744,288.956757 156.663940,289.870514 158.824280,290.765717 161.037354,291.530457 163.342957,292.168701 165.694519,292.785645 168.090576,293.316925 170.450012,293.880463 172.799805,294.417084 175.097290,294.965912 177.499512,295.463379 179.868652,295.920563 182.382141,296.322235 184.899902,296.762970 187.398682,297.169617 189.656067,297.876404 191.813965,298.668030 193.859436,299.568207 195.803101,300.565521 197.700745,301.646210 199.510193,302.853302 201.203857,304.121216 202.941711,305.526520 204.551880,307.059021 206.219055,308.675385 207.882629,310.377686 209.624878,312.174194 211.530334,314.076935 213.530151,316.097900 215.634460,318.204254 217.802795,320.346558 219.970093,322.524139 222.235046,324.753693 224.672729,327.088531 227.247131,329.622498 229.846924,332.161499 232.464233,334.737976 235.072815,337.309601 237.677917,339.903473 240.239990,342.509033 242.789978,345.114716 245.277771,347.731781 247.714966,350.346344 249.982849,352.938538 252.097107,355.491974 254.084534,358.009125 255.981995,360.493195 257.902588,362.972412 259.833801,365.408752 261.768799,367.804138 263.597961,370.141418 265.254822,372.399963 266.744934,374.601379 267.701721,376.578186 268.645081,378.547424 269.430481,380.472900 269.952393,382.263245 270.243896,383.942810 270.356079,385.523621 270.476135,387.095398 270.577148,388.656921 270.674866,390.212463 270.762024,391.758240 270.839355,393.291931 270.900574,394.805115 270.947937,396.297546 270.985535,397.773071 271.017761,399.236389 271.045410,400.688416 271.068054,402.121643 271.085815,403.523132 271.102539,404.877014 271.124695,406.199646 271.153015,407.497742 271.188171,408.774414 271.225830,410.041504 271.266235,411.295959 271.308228,412.536987 271.351013,413.762146 271.394836,414.971130 271.440552,416.159607 271.488220,417.345886 271.537109,418.535706 271.586426,419.736633 271.635864,420.951843 271.684875,422.183533 271.733582,423.440491 271.781250,424.750305 271.827209,426.161438 271.872864,427.750061 271.922546,429.463623 271.973206,431.189758 272.024414,432.933594 272.076477,434.691040 272.128662,436.454041 272.185547,438.293579 272.248962,440.210999 272.317078,442.171387 272.391418,444.183044 272.471558,446.238647 272.556213,448.332092 272.643616,450.449036 272.734253,452.610901 272.825378,454.801880 272.916443,457.011536 273.004700,459.240662 273.090881,461.483459 273.164917,463.755310 273.221436,466.057251 273.273193,468.360168 273.314392,470.665588 273.355652,472.971375 273.385620,475.275696 273.432800,477.581848 273.415344,479.877625 273.365112,482.074341 273.294189,484.397644 273.230835,486.280457 273.096802,489.159729" />
				<polygon fill="#FEFEFE" stroke="none" fill-opacity="1" points="313.192749,444.531433 313.928955,442.831055 314.407837,441.671875 315.032349,440.190613 315.655762,438.744690 316.321106,437.188354 317.029236,435.581299 317.782471,433.913940 318.570129,432.193420 319.423218,430.448608 320.345276,428.676147 321.327820,426.874939 322.398315,425.046692 323.560913,423.181702 324.838135,421.258240 326.186401,419.274841 327.615906,417.221191 329.096191,415.112732 330.664795,412.908752 332.291992,410.639832 333.964478,408.324768 335.700623,405.953491 337.552002,403.511292 339.419189,401.042603 341.294128,398.546936 343.172424,396.021423 345.115356,393.495422 347.173462,390.982117 349.289734,388.490051 351.422607,386.000916 353.579651,383.520813 355.782471,381.067810 358.000793,378.635681 360.306641,376.251282 362.758240,374.045349 365.194336,371.867004 367.653381,369.701111 370.157166,367.613525 372.679321,365.582581 375.265320,363.653534 377.934021,361.783386 380.675049,360.015991 383.465393,358.288300 386.338562,356.641541 389.313477,355.205841 392.395264,353.876343 395.531189,352.622284 398.822693,351.525391 402.256226,350.524811 405.831604,349.567780 409.588562,348.607147 413.458374,347.577698 417.717346,346.184601 422.093384,344.584167 426.476501,343.007294 430.850159,341.403198 435.231689,339.766479 439.559021,337.939911 443.785950,335.833344 447.911255,333.450287 452.004333,330.929657 456.066284,328.272369 460.102234,325.443146 464.083313,322.376404 467.953979,319.089569 471.346008,315.575348 474.628723,312.033051 477.892029,308.479584 481.091187,304.902771 484.136780,301.274017 486.983643,297.591064 489.730774,293.884949 492.374878,290.158539 494.905945,286.413116 497.224487,282.645355 499.396545,278.867767 501.491028,275.086182 503.429932,271.302795 505.199036,267.524536 506.802124,263.761261 508.245239,260.015900 509.486084,256.296051 510.533875,252.602356 511.384583,248.936401 512.124939,245.286682 512.784119,241.648926 513.352661,238.024780 513.757263,234.424866 514.074036,230.837769 514.319946,227.261047 514.505615,223.693237 514.625427,220.134827 514.673401,216.587280 514.656921,213.049500 514.546692,209.527100 514.370422,206.016052 514.119995,202.518738 513.776184,199.040466 513.360779,195.579102 512.887268,192.133484 512.371521,188.700989 511.784546,185.293335 511.092834,181.930054 510.331604,178.604736 509.498962,175.324768 508.571838,172.122131 507.575195,168.993408 506.530396,165.922241 505.426819,162.931580 504.277893,160.011841 503.091187,157.156189 501.861816,154.384827 500.597717,151.691833 499.296448,149.097656 497.968750,146.596436 496.623169,144.169922 495.258118,141.845581 493.876770,139.633972 492.485840,137.521362 491.090149,135.479065 489.691650,133.511658 488.291992,131.610779 486.892517,129.783630 485.493408,128.007202 484.095459,126.285217 482.698669,124.614563 481.302795,122.987488 479.908020,121.414795 478.513794,119.894043 477.119690,118.422791 475.724976,117.010681 474.328674,115.641052 472.930359,114.315857 471.529480,113.032043 470.125671,111.781372 468.717896,110.568665 467.303589,109.401917 465.878235,108.292603 464.442444,107.223206 462.992432,106.202271 461.533447,105.206665 460.064270,104.239807 458.588745,103.288452 457.104797,102.357544 455.614929,101.439697 454.117371,100.538757 452.613159,99.651306 451.099304,98.783081 449.576782,97.931641 448.041443,97.104065 446.492126,96.300964 444.927429,95.524292 443.338135,94.787537 441.725403,94.085754 440.089417,93.417297 438.433594,92.775574 436.749268,92.171448 435.044006,91.594482 433.317078,91.045288 431.570984,90.520996 429.810486,90.015076 428.033569,89.530518 426.245178,89.061340 424.443298,88.610413 422.628235,88.177490 420.797974,87.766479 418.957153,87.371155 417.100891,86.999329 415.225342,86.657898 413.328674,86.352478 411.409363,86.087830 409.472656,85.857300 407.518066,85.664124 405.548401,85.504517 403.566223,85.373718 401.573303,85.268921 399.568176,85.194092 397.551086,85.150208 395.516541,85.153259 393.465576,85.205505 391.401550,85.299438 389.324097,85.439087 387.238708,85.607422 385.145752,85.802551 383.047119,86.018555 380.942627,86.256409 378.832886,86.513428 376.716614,86.795776 374.590942,87.113770 372.456970,87.464600 370.311218,87.862854 368.153076,88.313599 365.986938,88.799500 363.811218,89.330994 361.625916,89.909729 359.425842,90.571655 357.213867,91.307800 354.989746,92.142944 352.759094,93.051880 350.525513,94.024292 348.290527,95.043335 346.055786,96.117310 343.822144,97.230652 341.593445,98.417419 339.375977,99.709106 337.168335,101.068298 334.969055,102.479492 332.776733,103.931030 330.589783,105.411743 328.408203,106.920532 326.233093,108.461182 324.066650,110.043396 321.917358,111.702637 319.794250,113.459106 317.692871,115.280701 315.609924,117.144226 313.541748,119.044250 311.528931,121.040588 309.685669,123.260559 307.955811,125.567627 306.273926,127.914062 304.644287,130.297974 303.046143,132.702759 301.489136,135.135437 299.981445,137.596802 298.550903,140.110474 297.277893,142.698120 296.072449,145.338867 294.887756,148.001038 293.726318,150.663757 292.560059,153.365356 291.509766,156.083923 290.467651,158.848206 289.504089,161.649719 288.757812,164.455139 288.134094,167.262329 287.583191,170.065613 287.079102,172.868896 286.614380,175.669067 286.223022,178.471619 285.953674,181.265564 285.791077,184.066528 285.699524,186.864502 285.658142,189.659790 285.654846,192.455444 285.759399,195.242371 285.989990,198.034790 286.373718,200.829834 286.867859,203.633545 287.484680,206.449280 288.218323,209.264648 289.070068,212.079224 290.017578,214.880737 291.038635,217.678467 292.124756,220.468628 293.301880,223.265015 294.561401,226.038513 296.136719,228.876953 297.892090,231.682129 299.781067,234.503662 301.805298,237.363220 303.956482,240.201538 306.309570,243.008484 308.555298,245.739014 311.043579,248.355469 313.301270,250.648956 315.685181,252.877838 317.988403,254.959259 320.255249,256.974609 322.593750,258.885376 324.771790,260.663116 327.002075,262.280914 329.119141,263.791870 331.201050,265.095825 333.169434,266.283722 335.101135,267.392853 337.045288,268.389740 338.885193,269.319153 340.692932,270.198303 342.501526,271.041992 344.221191,271.795349 345.990540,272.474609 347.699524,273.070282 349.398499,273.589264 351.082458,274.058624 352.764954,274.484741 354.446716,274.879272 356.130737,275.246338 357.817566,275.588989 359.508972,275.906921 361.205933,276.198334 362.911377,276.461548 364.626709,276.688110 366.356140,276.886353 368.095886,277.035583 369.855225,277.151001 371.674194,277.198120 373.497742,277.238556 375.334351,277.225067 377.215942,277.175964 379.116394,277.109375 380.978455,276.996368 382.907593,276.850342 384.863831,276.664124 386.811951,276.453003 388.787537,276.197388 390.791809,275.898865 392.729736,275.581573 394.765625,275.226837 396.840759,274.865234 398.822754,274.401367 400.834961,273.879028 402.750671,273.269104 404.637268,272.603180 406.453491,271.863831 408.282288,271.018707 410.133606,270.154572 412.031860,269.267151 413.940125,268.377533 415.850220,267.484650 417.685669,266.504395 419.484619,265.479614 421.214600,264.375671 422.954407,263.196930 424.627136,261.924042 426.297241,260.576355 427.969727,259.172760 429.624268,257.709656 431.246216,256.183868 432.862976,254.649445 434.468872,253.074738 436.042358,251.447327 437.550476,249.699036 439.055603,247.977844 440.535645,246.225769 441.900879,244.398560 443.177795,242.476929 444.175720,240.296631 445.184937,237.977417 446.129211,235.591614 446.910156,233.037842 447.584351,230.422668 448.107422,227.806580 448.510803,225.159058 448.725403,222.399963 448.907471,219.578857 449.098816,216.725220 449.240417,213.828003 449.225098,210.855286 449.066101,207.894653 448.665100,204.923218 448.160828,201.913818 447.493042,198.890625 446.716553,195.864990 445.781433,192.852356 444.668213,189.889648 443.304321,187.038452 441.649048,184.354004 439.833435,181.734985 437.777039,179.209839 435.424683,176.841431 432.956909,174.549438 430.465881,172.335266 427.888733,170.239441 425.197449,168.284180 422.394165,166.545532 419.472900,165.025879 416.442566,163.711060 413.318848,162.634338 410.147461,161.752014 406.951660,161.089050 403.767029,160.595337 400.619812,160.296631 397.532227,160.175232 394.536560,160.269592 391.640808,160.537415 388.879761,161.017456 386.218872,161.615784 383.662720,162.338318 381.210876,163.184875 378.841309,164.096130 376.610718,165.125732 374.459412,166.225281 372.444641,167.401917 370.534241,168.626648 368.709351,169.898499 367.074707,171.242310 365.497437,172.605652 364.069397,173.973206 362.768860,175.354797 361.486023,176.745178 360.310425,178.117004 359.238098,179.480164 358.213196,180.808899 357.259827,182.156128 356.431702,183.432129 355.704468,184.686035 355.044556,185.870361 354.432251,187.018433 353.862610,188.115356 353.353149,189.169495 352.917847,190.194458 352.470581,191.141907 352.105713,192.082031 351.720215,192.936035 351.420166,193.704224 351.159607,194.463684 350.823669,195.168884 350.609436,195.766479 350.400635,196.364380 350.176208,196.853333 349.926697,197.321045 349.750793,197.704590 349.552856,198.061279 349.395264,198.324890 349.255920,198.514587 349.082703,198.654297 348.911804,198.735901 348.762268,198.749390 348.649231,198.723633 348.517822,198.643250 348.394165,198.500305 348.274292,198.291687 348.221130,198.007324 348.112366,197.683228 348.024719,197.324402 348.003357,196.911438 347.930847,196.450989 347.880371,195.962097 347.903137,195.393677 347.948730,194.775146 347.977234,194.158875 348.071716,193.472351 348.170837,192.739746 348.252563,192.021484 348.368896,191.207092 348.557678,190.404724 348.773010,189.554688 348.985352,188.706543 349.216614,187.792969 349.506165,186.858582 349.812683,185.890808 350.175232,184.903687 350.559875,183.888062 350.982666,182.851562 351.437256,181.791443 351.950745,180.739929 352.468689,179.647400 353.058960,178.544495 353.672485,177.419495 354.305298,176.280334 355.002930,175.133057 355.750427,173.976929 356.516541,172.819519 357.324585,171.653687 358.224426,170.464539 359.115723,169.296082 360.064880,168.143372 361.054932,166.976135 362.101624,165.816589 363.182861,164.670654 364.354736,163.548401 365.587219,162.438049 366.875244,161.350891 368.240417,160.302246 369.685730,159.270142 371.197876,158.290894 372.770996,157.334717 374.397034,156.422302 376.063477,155.534729 377.779053,154.685791 379.534058,153.883667 381.337769,153.123230 383.181885,152.401184 385.074646,151.737488 387.013306,151.134521 389.005127,150.603577 391.042114,150.139709 393.119751,149.742920 395.243347,149.432983 397.404785,149.209351 399.596252,149.066650 401.805298,148.982788 404.034729,148.975891 406.281250,149.044006 408.545837,149.190247 410.837158,149.436890 413.158142,149.785339 415.508606,150.233826 417.882324,150.780640 420.263977,151.440002 422.629761,152.213745 424.945984,153.113159 427.180176,154.108215 429.348572,155.160339 431.415161,156.281128 433.361328,157.468689 435.172607,158.722900 436.880249,160.030823 438.495972,161.395081 440.069641,162.793579 441.607056,164.224548 443.124023,165.676025 444.594177,167.174744 445.967773,168.767700 447.273071,170.425171 448.539368,172.121094 449.768921,173.853210 450.967896,175.616394 452.123840,177.423767 453.223206,179.291016 454.246094,181.240234 455.174255,183.292603 456.014832,185.439270 456.786987,187.657043 457.505798,189.924316 458.124023,192.260132 458.693909,194.616272 459.237488,196.984741 459.754089,199.363281 460.241882,201.750977 460.673584,204.153320 461.044922,206.566345 461.329834,208.990967 461.534973,211.416931 461.662598,213.839844 461.744202,216.259827 461.768494,218.677734 461.710449,221.094055 461.579163,223.510681 461.383362,225.928101 461.142395,228.345886 460.848938,230.764465 460.471802,233.181458 459.998230,235.593262 459.429932,237.996887 458.774170,240.387634 458.023254,242.758423 457.175049,245.100098 456.248901,247.412170 455.250916,249.690826 454.193542,251.938904 453.045898,254.138123 451.771057,256.261017 450.400208,258.319611 448.955872,260.322174 447.449768,262.270905 445.886169,264.157288 444.248108,265.941833 442.560303,267.651489 440.814697,269.273254 439.040894,270.848022 437.213928,272.337891 435.304749,273.690308 433.350342,274.963776 431.369324,276.185822 429.372620,277.374481 427.352600,278.520142 425.330017,279.657867 423.299988,280.774719 421.247131,281.853638 419.189636,282.913818 417.130493,283.967377 415.053345,284.986877 412.985901,286.024994 410.895569,287.014557 408.800903,287.983612 406.702820,288.956757 404.601685,289.870514 402.441284,290.765717 400.228271,291.530457 397.922607,292.168701 395.571106,292.785645 393.174988,293.316925 390.815552,293.880463 388.465820,294.417084 386.168396,294.965912 383.766113,295.463379 381.396912,295.920563 378.883484,296.322235 376.365723,296.762970 373.866882,297.169617 371.609558,297.876404 369.451538,298.668030 367.406067,299.568207 365.462463,300.565521 363.564819,301.646210 361.755432,302.853302 360.061768,304.121216 358.323914,305.526520 356.713623,307.059021 355.046509,308.675385 353.382935,310.377686 351.640625,312.174194 349.735168,314.076935 347.735474,316.097900 345.631165,318.204254 343.462830,320.346558 341.295471,322.524139 339.030579,324.753693 336.592834,327.088531 334.018494,329.622498 331.418701,332.161499 328.801331,334.737976 326.192810,337.309601 323.587646,339.903473 321.025635,342.509033 318.475586,345.114716 315.987854,347.731781 313.550598,350.346344 311.282654,352.938538 309.168457,355.491974 307.181091,358.009125 305.283508,360.493195 303.362976,362.972412 301.431885,365.408752 299.496765,367.804138 297.667542,370.141418 296.010803,372.399963 294.520691,374.601379 293.563904,376.578186 292.620544,378.547424 291.835083,380.472900 291.313232,382.263245 291.021729,383.942810 290.909607,385.523621 290.789551,387.095398 290.688416,388.656921 290.590759,390.212463 290.503601,391.758240 290.426147,393.291931 290.365112,394.805115 290.317627,396.297546 290.280029,397.773071 290.247864,399.236389 290.220276,400.688416 290.197571,402.121643 290.179810,403.523132 290.163086,404.877014 290.140869,406.199646 290.112488,407.497742 290.077454,408.774414 290.039734,410.041504 289.999329,411.295959 289.957397,412.536987 289.914551,413.762146 289.870789,414.971130 289.825134,416.159607 289.777405,417.345886 289.728516,418.535706 289.679138,419.736633 289.629822,420.951843 289.580750,422.183533 289.532043,423.440491 289.484253,424.750305 289.438293,426.161438 289.392700,427.750061 289.343018,429.463623 289.292419,431.189758 289.241211,432.933594 289.189087,434.691040 289.136902,436.454041 289.080017,438.293579 289.016663,440.210999 288.948486,442.171387 288.874146,444.183044 288.794067,446.238647 288.709412,448.332092 288.622009,450.449036 288.531311,452.610901 288.440186,454.801880 288.349182,457.011536 288.260986,459.240662 288.174744,461.483459 288.100647,463.755310 288.044128,466.057251 287.992432,468.360168 287.951172,470.665588 287.909851,472.971375 287.879944,475.275696 287.832764,477.581848 287.850281,479.877625 287.900513,482.074341 287.971436,484.397644 288.034729,486.280457 288.168823,489.159729" />
			</g>
		</g>
	</g>
	<g id="blender_frame_1">
		<g id="blender_object_GPencil.011">
			<!--Layer: Plane_013_Fills-->
			<g id="Plane_013_Fills">
				<polygon fill="#FEFEFE" stroke="none" fill-opacity="1" points="280.600342,362.535248 342.992554,300.143097 280.600342,237.750854 218.208191,300.143097" />
			</g>
			<!--Layer: Plane_013_Lines-->
			<g id="Plane_013_Lines">
				<polygon fill="#FEFEFE" stroke="none" fill-opacity="1" points="218.208191,300.143097 280.600342,362.535248" />
				<polygon fill="#FEFEFE" stroke="none" fill-opacity="1" points="280.600342,362.535248 342.992554,300.143097" />
				<polygon fill="#FEFEFE" stroke="none" fill-opacity="1" points="342.992554,300.143097 280.600342,237.750854" />
				<polygon fill="#FEFEFE" stroke="none" fill-opacity="1" points="280.600342,237.750854 218.208191,300.143097" />
			</g>
		</g>
	</g>
		<style>
		#GP_Layer *, #GP_Layer{
			-webkit-filter: drop-shadow( 0px 0px 20px rgba(0, 0, 0, 0.10));
			filter: drop-shadow( 0px 0px 20px rgba(0, 0, 0, 0.10));
		}
		#blender_frame_1 *, #blender_frame_1{
			<!-- -webkit-filter: drop-shadow( 0px 0px 50px rgba(1, 1, 1, 0.15));
			filter: drop-shadow( 0px 0px 50px rgba(1, 1, 1, 0.15)); -->
		}
	</style>
</svg>
